<svg width="495" height="136" viewBox="0 0 495 136" fill="none" xmlns="http://www.w3.org/2000/svg">
<path d="M110.813 88.2353V62.4272H117.259V88.2353H110.813ZM114.197 88.6381V85.1469H127.759L128.753 88.6381H114.197ZM128.753 88.6381L123.355 86.4091L127.491 79.1045H130.015C130.015 82.5061 129.594 85.684 128.753 88.6381ZM120.857 62.0512L120.669 64.4145C120.168 64.5756 119.533 64.7457 118.763 64.9248C117.993 65.0859 117.151 65.2381 116.238 65.3813L117.259 62.7226V66.9389H110.813V62.7226L111.753 65.247L108.182 64.4682L108.37 62.0512H120.857ZM108.289 88.6381L108.477 86.2749C109.336 85.8989 110.455 85.5498 111.834 85.2275L110.813 87.9668V83.7505H117.259V87.9668L116.319 85.4423L119.891 86.2212L119.703 88.6381H108.289ZM143.569 88.2353V62.4272H150.014V88.2353H143.569ZM141.044 88.6381L141.232 86.2749C142.092 85.8989 143.21 85.5498 144.589 85.2275L143.569 87.9668V83.7505H150.014V87.9668L149.074 85.4423L152.646 86.2212L152.458 88.6381H141.044ZM152.538 62.0512L152.35 64.4145C151.491 64.7905 150.372 65.1396 148.993 65.4619L150.014 62.7226V66.9389H143.569V62.7226L144.508 65.247L140.937 64.4682L141.125 62.0512H152.538ZM171.919 88.2353V62.4272H178.365V88.2353H171.919ZM163.299 70.7793C163.048 67.7714 163.2 64.8621 163.755 62.0512L168.965 64.3877L165.931 70.7793H163.299ZM164.212 65.5424L163.755 62.0512H186.529L185.589 65.5424H164.212ZM184.353 70.7793L181.319 64.3877L186.529 62.0512C187.084 64.8621 187.236 67.7714 186.985 70.7793H184.353ZM168.965 88.6381L169.153 86.2749C169.672 86.06 170.254 85.872 170.899 85.7109C171.561 85.5498 172.242 85.4155 172.94 85.3081L171.919 87.9668V83.7505H178.365V87.9668L177.425 85.4692L181.426 86.2212L181.238 88.6381H168.965ZM205.641 88.2353V62.4272H212.087V88.2353H205.641ZM197.021 70.7793C196.77 67.7714 196.922 64.8621 197.477 62.0512L202.687 64.3877L199.652 70.7793H197.021ZM197.934 65.5424L197.477 62.0512H220.251L219.311 65.5424H197.934ZM218.075 70.7793L215.041 64.3877L220.251 62.0512C220.806 64.8621 220.958 67.7714 220.707 70.7793H218.075ZM202.687 88.6381L202.875 86.2749C203.394 86.06 203.976 85.872 204.621 85.7109C205.283 85.5498 205.963 85.4155 206.662 85.3081L205.641 87.9668V83.7505H212.087V87.9668L211.147 85.4692L215.148 86.2212L214.96 88.6381H202.687ZM233.938 88.2353V62.4272H240.384V88.2353H233.938ZM237.322 88.6381V85.1469H250.884L251.878 88.6381H237.322ZM251.878 88.6381L246.48 86.4091L250.616 79.1045H253.14C253.14 82.5061 252.719 85.684 251.878 88.6381ZM243.982 62.0512L243.794 64.4145C243.293 64.5756 242.657 64.7457 241.887 64.9248C241.118 65.0859 240.276 65.2381 239.363 65.3813L240.384 62.7226V66.9389H233.938V62.7226L234.878 65.247L231.306 64.4682L231.494 62.0512H243.982ZM231.414 88.6381L231.602 86.2749C232.461 85.8989 233.58 85.5498 234.959 85.2275L233.938 87.9668V83.7505H240.384V87.9668L239.444 85.4423L243.015 86.2212L242.827 88.6381H231.414ZM266.64 88.2353V62.4272H273.085V88.2353H266.64ZM270.05 88.6381V85.1469H284.821L285.465 88.6381H270.05ZM285.465 88.6381L280.229 86.4091L283.8 80.1787H286.674C286.71 81.3961 286.62 82.7389 286.405 84.207C286.208 85.6751 285.895 87.1521 285.465 88.6381ZM269.621 76.8217V73.1694H281.759L281.491 76.8217H269.621ZM268.493 65.5424V62.0512H285.17L284.66 65.5424H268.493ZM282.833 70.0273L280.148 64.3877L285.17 62.0512C285.456 63.3403 285.644 64.6741 285.734 66.0527C285.841 67.4313 285.85 68.7561 285.761 70.0273H282.833ZM264.115 88.6381L264.303 86.2749C265.163 85.8989 266.282 85.5498 267.66 85.2275L266.64 87.9668V83.7505H273.085V87.9668L272.145 85.4423L275.717 86.2212L275.529 88.6381H264.115ZM275.609 62.0512L275.421 64.4145C274.562 64.7905 273.443 65.1396 272.064 65.4619L273.085 62.7226V66.9389H266.64V62.7226L267.58 65.247L264.008 64.4682L264.196 62.0512H275.609ZM317.272 88.2353V62.4272H323.717V88.2353H317.272ZM320.656 88.6381V85.1469H334.218L335.211 88.6381H320.656ZM335.211 88.6381L329.813 86.4091L333.949 79.1045H336.474C336.474 82.5061 336.053 85.684 335.211 88.6381ZM327.316 62.0512L327.128 64.4145C326.627 64.5756 325.991 64.7457 325.221 64.9248C324.451 65.0859 323.61 65.2381 322.697 65.3813L323.717 62.7226V66.9389H317.272V62.7226L318.212 65.247L314.64 64.4682L314.828 62.0512H327.316ZM314.747 88.6381L314.935 86.2749C315.795 85.8989 316.914 85.5498 318.292 85.2275L317.272 87.9668V83.7505H323.717V87.9668L322.777 85.4423L326.349 86.2212L326.161 88.6381H314.747ZM349.973 88.2353V62.4272H356.419V88.2353H349.973ZM353.384 88.6381V85.1469H368.154L368.799 88.6381H353.384ZM368.799 88.6381L363.562 86.4091L367.134 80.1787H370.007C370.043 81.3961 369.954 82.7389 369.739 84.207C369.542 85.6751 369.229 87.1521 368.799 88.6381ZM352.954 76.8217V73.1694H365.093L364.824 76.8217H352.954ZM351.826 65.5424V62.0512H368.504L367.993 65.5424H351.826ZM366.167 70.0273L363.482 64.3877L368.504 62.0512C368.79 63.3403 368.978 64.6741 369.067 66.0527C369.175 67.4313 369.184 68.7561 369.094 70.0273H366.167ZM347.449 88.6381L347.637 86.2749C348.496 85.8989 349.615 85.5498 350.994 85.2275L349.973 87.9668V83.7505H356.419V87.9668L355.479 85.4423L359.05 86.2212L358.862 88.6381H347.449ZM358.943 62.0512L358.755 64.4145C357.896 64.7905 356.777 65.1396 355.398 65.4619L356.419 62.7226V66.9389H349.973V62.7226L350.913 65.247L347.341 64.4682L347.529 62.0512H358.943ZM395.35 87.2954L386.058 62.0512H392.665L400.829 84.9321L400.346 87.188C399.54 87.2596 398.698 87.3133 397.821 87.3491C396.962 87.367 396.138 87.3491 395.35 87.2954ZM380.848 88.6381L381.036 86.2749C381.842 85.881 382.907 85.5319 384.232 85.2275L383.077 87.6713L384.662 63.2866L385.521 65.247L381.762 64.4682L381.95 62.0512H388.771L387.374 87.6176L386.542 85.4692L390.382 86.2212L390.194 88.6381H380.848ZM400.346 87.188L396.72 86.7046L405.126 62.0512H409.611L400.346 87.188ZM405.421 88.6381L405.609 86.2749C406.093 86.0779 406.648 85.8899 407.274 85.7109C407.919 85.5319 408.572 85.3797 409.235 85.2544L408.322 87.4834L406.952 62.0512H415.841L415.653 64.4145C414.668 64.8263 413.478 65.1665 412.081 65.435L413.102 63.5283L414.686 87.4028L413.666 85.4423L417.05 86.2212L416.862 88.6381H405.421ZM441.479 89.1215C438.722 89.1215 436.323 88.5576 434.282 87.4296C432.241 86.3017 430.666 84.7083 429.556 82.6494C428.446 80.5905 427.891 78.1645 427.891 75.3715C427.891 72.5607 428.446 70.1258 429.556 68.0669C430.666 65.99 432.241 64.3877 434.282 63.2597C436.323 62.1318 438.731 61.5678 441.506 61.5678C444.281 61.5678 446.689 62.1318 448.73 63.2597C450.771 64.3877 452.347 65.9811 453.457 68.04C454.567 70.081 455.122 72.507 455.122 75.3178C455.122 78.1287 454.567 80.5726 453.457 82.6494C452.347 84.7083 450.771 86.3017 448.73 87.4296C446.689 88.5576 444.272 89.1215 441.479 89.1215ZM442.151 85.684C445.929 85.684 447.817 82.5867 447.817 76.3921C447.817 72.7397 447.218 69.9288 446.018 67.9594C444.819 65.99 443.1 65.0053 440.862 65.0053C437.084 65.0053 435.195 68.1027 435.195 74.2973C435.195 77.9497 435.795 80.7605 436.995 82.7299C438.212 84.6993 439.931 85.684 442.151 85.684ZM487.125 88.7993L469.186 66.9389L472.999 62.0512L490.939 83.9653L491.207 88.665C490.061 88.844 488.701 88.8888 487.125 88.7993ZM468.917 88.2353V62.4272L473.214 64.0117V88.2353H468.917ZM472.892 66.6704L469.803 65.7304L466.232 64.4682L466.42 62.0512H472.999L472.892 66.6704ZM491.207 88.665L486.91 86.3823V62.4272H491.207V88.665ZM466.393 88.6381L466.581 86.2749C467.44 85.8989 468.559 85.5498 469.938 85.2275L468.917 87.9668V83.7505H473.214V87.9668L472.274 85.4692L476.222 86.2212L476.034 88.6381H466.393ZM493.57 62.0512L493.383 64.4145C492.469 64.8442 491.404 65.1933 490.187 65.4619L491.207 62.7226V66.9389H486.91V62.7226L487.85 65.247L484.279 64.4682L484.466 62.0512H493.57Z" fill="#5B756C"/>
<ellipse cx="44.99" cy="13.519" rx="11.4096" ry="23.7132" transform="rotate(-95.2312 44.99 13.519)" fill="#5B756C"/>
<path fill-rule="evenodd" clip-rule="evenodd" d="M11.56 24.5842C11.56 26.6362 11.9729 28.5919 12.7202 30.3725C1.60519 42.581 -2.98016 63.723 2.30272 85.6237C9.1701 114.093 30.2946 133.819 50.9622 132.162C52.6422 134.229 55.2049 135.55 58.0761 135.55C63.1366 135.55 67.239 131.447 67.239 126.387C67.239 126.194 67.233 126.002 67.2213 125.812C81.5611 114.762 88.1443 91.0396 82.1896 66.3535C76.1294 41.2304 58.9668 22.9163 40.8132 20.0965C38.9068 14.022 33.2324 9.61535 26.5288 9.61535C18.2617 9.61535 11.56 16.3171 11.56 24.5842Z" fill="#FFCF24"/>
<ellipse cx="34.2207" cy="31.7556" rx="11.4096" ry="23.7132" transform="rotate(-43.4512 34.2207 31.7556)" fill="#5B756C"/>
</svg>
