<?xml version="1.0" standalone="no"?>
<!DOCTYPE svg PUBLIC "-//W3C//DTD SVG 20010904//EN"
 "http://www.w3.org/TR/2001/REC-SVG-20010904/DTD/svg10.dtd">
<svg version="1.0" xmlns="http://www.w3.org/2000/svg"
 width="501.000000pt" height="501.000000pt" viewBox="0 0 501.000000 501.000000"
 preserveAspectRatio="xMidYMid meet">
<metadata>
Created by potrace 1.14, written by Peter Selinger 2001-2017
</metadata>
<g transform="translate(0.000000,501.000000) scale(0.100000,-0.100000)"
fill="#000000" stroke="none">
<path d="M2275 5004 c-577 -59 -1095 -296 -1502 -688 -428 -411 -690 -934
-758 -1512 -22 -187 -22 -1017 1 -1175 78 -560 399 -1045 896 -1352 198 -123
440 -209 693 -247 121 -18 185 -20 900 -20 715 0 779 2 900 20 409 62 764 241
1054 531 296 296 477 658 536 1070 18 125 21 980 5 1137 -48 451 -220 883
-499 1257 -95 127 -347 379 -474 474 -199 148 -445 283 -669 365 -120 44 -338
100 -478 122 -101 15 -509 28 -605 18z m665 -433 c529 -91 910 -314 910 -533
0 -193 -319 -403 -760 -502 -200 -44 -345 -59 -585 -59 -240 0 -385 15 -585
59 -367 82 -651 240 -739 412 -48 94 -15 200 94 299 194 178 521 295 975 347
19 2 154 3 300 1 215 -2 289 -7 390 -24z"/>
</g>
</svg>
